<?xml version="1.0" encoding="UTF-8"?>
<svg xmlns="http://www.w3.org/2000/svg" xmlns:xlink="http://www.w3.org/1999/xlink" width="64px" height="64px" viewBox="0 0 64 64" version="1.1">
<defs>
<linearGradient id="linear0" gradientUnits="userSpaceOnUse" x1="32" y1="9.083" x2="32" y2="54.676" spreadMethod="reflect">
<stop offset="0" style="stop-color:rgb(10.196078%,42.745098%,100%);stop-opacity:1;"/>
<stop offset="1" style="stop-color:rgb(78.431373%,13.333333%,100%);stop-opacity:1;"/>
</linearGradient>
<linearGradient id="linear1" gradientUnits="userSpaceOnUse" x1="19" y1="25" x2="19" y2="38.666" spreadMethod="reflect">
<stop offset="0" style="stop-color:rgb(42.745098%,78.039216%,100%);stop-opacity:1;"/>
<stop offset="1" style="stop-color:rgb(90.196078%,67.058824%,100%);stop-opacity:1;"/>
</linearGradient>
<linearGradient id="linear2" gradientUnits="userSpaceOnUse" x1="19" y1="29" x2="19" y2="39" spreadMethod="reflect">
<stop offset="0" style="stop-color:rgb(42.745098%,78.039216%,100%);stop-opacity:1;"/>
<stop offset="1" style="stop-color:rgb(90.196078%,67.058824%,100%);stop-opacity:1;"/>
</linearGradient>
<linearGradient id="linear3" gradientUnits="userSpaceOnUse" x1="29" y1="25" x2="29" y2="38.998" spreadMethod="reflect">
<stop offset="0" style="stop-color:rgb(42.745098%,78.039216%,100%);stop-opacity:1;"/>
<stop offset="1" style="stop-color:rgb(90.196078%,67.058824%,100%);stop-opacity:1;"/>
</linearGradient>
<linearGradient id="linear4" gradientUnits="userSpaceOnUse" x1="42" y1="25.001" x2="42" y2="39" spreadMethod="reflect">
<stop offset="0" style="stop-color:rgb(42.745098%,78.039216%,100%);stop-opacity:1;"/>
<stop offset="1" style="stop-color:rgb(90.196078%,67.058824%,100%);stop-opacity:1;"/>
</linearGradient>
</defs>
<g id="surface89412">
<path style=" stroke:none;fill-rule:nonzero;fill:url(#linear0);" d="M 50 55 L 14 55 C 11.242188 55 9 52.757812 9 50 L 9 14 C 9 11.242188 11.242188 9 14 9 L 50 9 C 52.757812 9 55 11.242188 55 14 L 55 50 C 55 52.757812 52.757812 55 50 55 Z M 14 11 C 12.347656 11 11 12.347656 11 14 L 11 50 C 11 51.652344 12.347656 53 14 53 L 50 53 C 51.652344 53 53 51.652344 53 50 L 53 14 C 53 12.347656 51.652344 11 50 11 Z M 14 11 "/>
<path style=" stroke:none;fill-rule:nonzero;fill:url(#linear1);" d="M 18 26.003906 C 18 25.433594 18.425781 25 19 25 C 19.574219 25 20 25.433594 20 26.003906 C 20 26.566406 19.574219 27 19 27 C 18.425781 27 18 26.566406 18 26.003906 Z M 18 26.003906 "/>
<path style=" stroke:none;fill-rule:nonzero;fill:url(#linear2);" d="M 18 29 L 20 29 L 20 39 L 18 39 Z M 18 29 "/>
<path style=" stroke:none;fill-rule:nonzero;fill:url(#linear3);" d="M 35 31.996094 C 35 36.289062 32.734375 38.996094 29.007812 38.996094 C 25.273438 38.996094 23 36.296875 23 31.996094 C 23 27.683594 25.316406 25 29.007812 25 C 32.71875 25 35 27.691406 35 31.996094 Z M 25.042969 31.996094 C 25.042969 35.074219 26.539062 37.0625 29.007812 37.0625 C 31.453125 37.0625 32.960938 35.074219 32.960938 31.996094 C 32.960938 28.894531 31.453125 26.933594 29.007812 26.933594 C 26.585938 26.933594 25.042969 28.894531 25.042969 31.996094 Z M 25.042969 31.996094 "/>
<path style=" stroke:none;fill-rule:nonzero;fill:url(#linear4);" d="M 39.007812 35.085938 C 39.179688 36.351562 40.390625 37.15625 42.132812 37.15625 C 43.757812 37.15625 44.949219 36.296875 44.949219 35.113281 C 44.949219 34.097656 44.191406 33.484375 42.46875 33.070312 L 40.785156 32.652344 C 38.429688 32.089844 37.355469 30.921875 37.355469 28.960938 C 37.355469 26.582031 39.25 25 42.097656 25 C 44.742188 25 46.675781 26.582031 46.792969 28.832031 L 44.824219 28.832031 C 44.632812 27.601562 43.585938 26.835938 42.070312 26.835938 C 40.46875 26.835938 39.402344 27.621094 39.402344 28.824219 C 39.402344 29.777344 40.089844 30.320312 41.789062 30.730469 L 43.222656 31.089844 C 45.898438 31.726562 47 32.839844 47 34.847656 C 47 37.398438 45.066406 39 41.976562 39 C 39.085938 39 37.144531 37.472656 37 35.085938 Z M 39.007812 35.085938 "/>
</g>
</svg>
